# xmcd
#
# Track frame offsets: 
#        150
#        2544
#        15982
#        32513
#        50063
#        62666
#        77216
#        90923
#        110041
#        123977
#        137168
#        147880
#        164868
#
# Disc length: 2419 seconds
#
# Revision: 0
# Processed by: cddbd v1.5.2PL0 Copyright (c) Steve Scherf et al.
# Submitted via: ExactAudioCopyFreeDBPlugin 1.0
#
DISCID=a709710d
DTITLE=MC Sadri - D.I.H.H. (Das ist Hip Hop)
DYEAR=2011
DGENRE=Hip-Hop
TTITLE0=Intro
TTITLE1=Schau was ich mache
TTITLE2=I.L.D.
TTITLE3=Blindman feat. Samy Deluxe
TTITLE4=Ohne Euch
TTITLE5=Dieses Lied
TTITLE6=Rap ist unser Licht
TTITLE7=Helfen uns selbst feat. Samy Deluxe
TTITLE8=Einzelkind
TTITLE9=In Bildern
TTITLE10=Alles wird gut
TTITLE11=Blindman feat. Samy Deluxe (Talents remix)
TTITLE12=Einzelkind (Monroe remix)
EXTD=
EXTT0=
EXTT1=
EXTT2=
EXTT3=
EXTT4=
EXTT5=
EXTT6=
EXTT7=
EXTT8=
EXTT9=
EXTT10=
EXTT11=
EXTT12=
PLAYORDER=
